<mxfile host="app.diagrams.net" modified="2021-10-13T03:45:54.522Z" agent="5.0 (Windows)" etag="_vhdgs9kMfzmdulXvMBq" version="15.5.2" type="github">
  <diagram id="VKDOg7KuxzBJnY2rEgDh" name="Page-1">
    <mxGraphModel dx="1221" dy="642" grid="1" gridSize="10" guides="1" tooltips="1" connect="1" arrows="1" fold="1" page="1" pageScale="1" pageWidth="827" pageHeight="1169" math="0" shadow="0">
      <root>
        <mxCell id="0" />
        <mxCell id="1" parent="0" />
        <mxCell id="9Vh8eCsUmuaM1t3VCAzv-1" value="s1" style="rounded=0;whiteSpace=wrap;html=1;" vertex="1" parent="1">
          <mxGeometry x="20" y="140" width="120" height="60" as="geometry" />
        </mxCell>
        <mxCell id="9Vh8eCsUmuaM1t3VCAzv-2" value="s2" style="rounded=0;whiteSpace=wrap;html=1;" vertex="1" parent="1">
          <mxGeometry x="140" y="140" width="120" height="60" as="geometry" />
        </mxCell>
        <mxCell id="9Vh8eCsUmuaM1t3VCAzv-3" value="s4" style="rounded=0;whiteSpace=wrap;html=1;" vertex="1" parent="1">
          <mxGeometry x="260" y="140" width="120" height="60" as="geometry" />
        </mxCell>
        <mxCell id="9Vh8eCsUmuaM1t3VCAzv-5" value="s6" style="rounded=0;whiteSpace=wrap;html=1;" vertex="1" parent="1">
          <mxGeometry x="380" y="140" width="120" height="60" as="geometry" />
        </mxCell>
        <mxCell id="9Vh8eCsUmuaM1t3VCAzv-6" value="s8" style="rounded=0;whiteSpace=wrap;html=1;" vertex="1" parent="1">
          <mxGeometry x="500" y="140" width="120" height="60" as="geometry" />
        </mxCell>
        <mxCell id="9Vh8eCsUmuaM1t3VCAzv-10" value="s12" style="rounded=0;whiteSpace=wrap;html=1;" vertex="1" parent="1">
          <mxGeometry x="740" y="140" width="120" height="60" as="geometry" />
        </mxCell>
        <mxCell id="9Vh8eCsUmuaM1t3VCAzv-11" value="s14" style="rounded=0;whiteSpace=wrap;html=1;" vertex="1" parent="1">
          <mxGeometry x="860" y="140" width="120" height="60" as="geometry" />
        </mxCell>
        <mxCell id="9Vh8eCsUmuaM1t3VCAzv-12" value="s16" style="rounded=0;whiteSpace=wrap;html=1;" vertex="1" parent="1">
          <mxGeometry x="980" y="140" width="120" height="60" as="geometry" />
        </mxCell>
        <mxCell id="9Vh8eCsUmuaM1t3VCAzv-13" value="s18" style="rounded=0;whiteSpace=wrap;html=1;" vertex="1" parent="1">
          <mxGeometry x="1100" y="140" width="120" height="60" as="geometry" />
        </mxCell>
        <mxCell id="9Vh8eCsUmuaM1t3VCAzv-15" value="s3" style="rounded=0;whiteSpace=wrap;html=1;" vertex="1" parent="1">
          <mxGeometry x="200" y="200" width="120" height="60" as="geometry" />
        </mxCell>
        <mxCell id="9Vh8eCsUmuaM1t3VCAzv-16" value="s5" style="rounded=0;whiteSpace=wrap;html=1;" vertex="1" parent="1">
          <mxGeometry x="320" y="200" width="120" height="60" as="geometry" />
        </mxCell>
        <mxCell id="9Vh8eCsUmuaM1t3VCAzv-17" value="s7" style="rounded=0;whiteSpace=wrap;html=1;" vertex="1" parent="1">
          <mxGeometry x="440" y="200" width="120" height="60" as="geometry" />
        </mxCell>
        <mxCell id="9Vh8eCsUmuaM1t3VCAzv-22" value="s13" style="rounded=0;whiteSpace=wrap;html=1;" vertex="1" parent="1">
          <mxGeometry x="800" y="200" width="120" height="60" as="geometry" />
        </mxCell>
        <mxCell id="9Vh8eCsUmuaM1t3VCAzv-23" value="s15" style="rounded=0;whiteSpace=wrap;html=1;" vertex="1" parent="1">
          <mxGeometry x="920" y="200" width="120" height="60" as="geometry" />
        </mxCell>
        <mxCell id="9Vh8eCsUmuaM1t3VCAzv-24" value="s17" style="rounded=0;whiteSpace=wrap;html=1;" vertex="1" parent="1">
          <mxGeometry x="1040" y="200" width="120" height="60" as="geometry" />
        </mxCell>
        <mxCell id="9Vh8eCsUmuaM1t3VCAzv-25" value="s18" style="rounded=0;whiteSpace=wrap;html=1;" vertex="1" parent="1">
          <mxGeometry x="1040" y="80" width="120" height="60" as="geometry" />
        </mxCell>
        <mxCell id="9Vh8eCsUmuaM1t3VCAzv-27" value="........." style="text;html=1;align=center;verticalAlign=middle;resizable=0;points=[];autosize=1;strokeColor=none;fillColor=none;" vertex="1" parent="1">
          <mxGeometry x="630" y="180" width="40" height="20" as="geometry" />
        </mxCell>
        <mxCell id="9Vh8eCsUmuaM1t3VCAzv-29" value="s11" style="rounded=0;whiteSpace=wrap;html=1;" vertex="1" parent="1">
          <mxGeometry x="680" y="200" width="120" height="60" as="geometry" />
        </mxCell>
      </root>
    </mxGraphModel>
  </diagram>
</mxfile>
